<?xml version="1.0" standalone="no"?>
<!DOCTYPE svg PUBLIC "-//W3C//DTD SVG 20010904//EN"
 "http://www.w3.org/TR/2001/REC-SVG-20010904/DTD/svg10.dtd">
<svg version="1.0" xmlns="http://www.w3.org/2000/svg"
 width="559.000000pt" height="447.000000pt" viewBox="0 0 559.000000 447.000000"
 preserveAspectRatio="xMidYMid meet">

<g transform="translate(0.000000,447.000000) scale(0.100000,-0.100000)"
fill="#000000" stroke="none">
<path d="M3190 4312 c0 -17 -7 -86 -15 -154 -17 -140 -47 -383 -91 -748 -8
-69 -21 -172 -29 -230 -27 -206 -28 -222 -8 -217 10 3 66 20 125 38 l107 32
-4 71 c-3 39 -12 195 -20 346 -9 151 -20 338 -25 415 -5 77 -13 213 -16 303
-4 89 -11 165 -16 168 -4 3 -8 -8 -8 -24z"/>
<path d="M1556 3940 c4 -8 102 -157 217 -330 115 -173 253 -380 306 -460 53
-80 98 -147 101 -150 3 -3 48 -69 100 -148 l94 -143 87 87 c48 48 85 92 82 98
-4 6 -36 42 -72 80 -36 37 -71 73 -76 80 -16 17 -297 318 -325 347 -14 14 -81
86 -150 160 -284 304 -376 400 -364 379z"/>
<path d="M4512 3702 c-62 -64 -271 -275 -465 -469 -193 -194 -349 -354 -346
-357 3 -4 75 -17 239 -46 53 -10 44 -19 160 160 45 69 117 179 160 245 72 109
142 218 173 270 7 11 14 22 17 25 3 3 41 61 85 130 43 69 85 133 93 143 9 9
11 17 6 17 -5 0 -60 -53 -122 -118z"/>
<path d="M410 2897 c5 -5 181 -100 368 -198 53 -28 133 -70 177 -94 175 -93
254 -135 340 -180 50 -26 126 -67 170 -90 44 -23 123 -65 175 -92 52 -28 130
-69 173 -92 85 -45 87 -45 87 -31 0 5 24 60 54 122 30 62 62 131 72 153 10 22
19 43 21 46 2 4 -4 9 -14 12 -59 17 -688 191 -733 203 -69 18 -301 82 -360 99
-25 7 -74 20 -110 30 -36 10 -85 23 -110 30 -25 7 -70 20 -100 28 -30 8 -82
23 -115 32 -93 26 -100 28 -95 22z"/>
<path d="M2983 2891 c-24 -4 -46 -10 -49 -14 -4 -3 -1 -34 7 -67 13 -60 14
-61 44 -55 67 14 65 12 65 81 0 45 -4 64 -12 63 -7 -1 -32 -5 -55 -8z"/>
<path d="M3180 2835 l0 -65 45 0 c29 0 45 4 46 13 0 6 4 33 8 59 7 45 7 46
-22 52 -74 15 -77 13 -77 -59z"/>
<path d="M5075 2874 c-94 -44 -226 -104 -230 -104 -2 0 -61 -27 -131 -60 -69
-33 -127 -60 -129 -60 -2 0 -39 -16 -82 -36 -168 -78 -209 -97 -232 -105 -13
-5 -21 -12 -17 -16 7 -7 159 -62 192 -70 21 -5 93 42 271 173 40 30 101 73
135 97 72 50 211 149 248 177 30 22 17 25 -25 4z"/>
<path d="M3414 2814 c-8 -64 -2 -74 41 -74 31 0 34 3 50 51 9 28 15 52 14 53
-2 2 -25 8 -51 14 l-47 9 -7 -53z"/>
<path d="M2790 2850 c-8 -6 -31 -15 -52 -20 l-36 -10 20 -53 c11 -28 22 -60
25 -69 7 -22 1 -22 58 3 45 20 47 22 41 52 -4 18 -9 49 -13 70 -6 38 -16 44
-43 27z"/>
<path d="M2550 2759 c-30 -15 -55 -33 -55 -38 0 -17 85 -121 98 -121 7 0 26 9
44 20 l32 19 -26 75 c-14 42 -29 76 -32 75 -3 0 -31 -14 -61 -30z"/>
<path d="M3636 2743 c-16 -47 -16 -48 6 -65 13 -10 28 -18 34 -18 10 0 54 78
54 94 0 5 -60 36 -71 36 -4 0 -14 -21 -23 -47z"/>
<path d="M2377 2640 c-31 -23 -57 -44 -57 -48 0 -4 26 -34 58 -65 l59 -58 38
34 39 35 -33 63 c-19 35 -37 67 -41 72 -3 4 -32 -11 -63 -33z"/>
<path d="M3842 2630 l-30 -49 23 -15 c32 -21 31 -21 65 17 37 40 37 48 1 75
l-29 21 -30 -49z"/>
<path d="M3070 2629 c-105 -29 -311 -121 -411 -184 -91 -57 -330 -277 -436
-402 -65 -75 -73 -90 -104 -187 -26 -85 -36 -105 -49 -101 -8 4 -42 13 -75 21
-33 8 -73 20 -88 26 -23 9 -30 8 -40 -6 -13 -18 -64 -26 -352 -61 -270 -32
-381 -46 -459 -56 -44 -6 -116 -14 -160 -19 -78 -9 -187 -22 -456 -55 -69 -9
-178 -22 -243 -29 -65 -7 -121 -16 -124 -20 -4 -3 33 -6 82 -6 48 0 205 -7
349 -15 144 -8 419 -21 611 -30 482 -22 684 -33 695 -40 6 -4 10 -35 10 -71 0
-44 4 -63 11 -59 6 4 25 4 44 1 32 -6 33 -8 28 -45 -3 -21 0 -48 7 -60 16 -31
69 -61 107 -61 48 0 63 -9 63 -39 0 -30 1 -30 -215 -163 -66 -41 -162 -101
-213 -134 -130 -83 -131 -84 -218 -138 -44 -26 -136 -85 -206 -130 -70 -44
-139 -88 -153 -96 -128 -77 -354 -224 -350 -228 3 -3 22 2 42 11 21 9 144 55
273 102 129 47 252 93 273 101 41 15 102 39 157 59 19 8 141 52 270 100 129
47 250 93 268 101 34 15 154 19 236 8 l46 -7 41 -81 c23 -44 44 -84 48 -87 10
-10 278 9 371 26 211 39 251 48 340 76 175 56 360 161 360 204 0 9 -26 22 -67
34 -57 16 -111 20 -339 25 -340 7 -484 27 -557 78 -40 28 -75 89 -88 150 -6
29 -16 62 -22 73 -6 11 -10 83 -10 165 0 144 0 145 33 205 42 79 64 101 119
122 25 9 57 23 71 30 14 7 31 13 38 13 8 0 42 27 77 60 34 34 77 65 96 70 58
17 135 12 184 -12 l46 -23 43 45 c67 71 80 102 80 196 -1 45 -5 87 -9 94 -11
17 -157 5 -255 -22 -41 -11 -88 -24 -105 -28 -71 -18 -173 -85 -252 -167 -47
-48 -53 -51 -53 -24 0 34 167 227 265 306 45 37 168 114 265 167 36 20 112 64
170 98 57 34 106 57 108 51 11 -33 54 -64 156 -114 63 -32 119 -57 124 -57 14
0 131 -63 203 -108 65 -42 193 -184 224 -249 15 -32 35 -44 35 -22 0 19 -86
184 -127 245 -63 91 -110 136 -208 196 -138 84 -181 106 -286 149 -92 37 -102
39 -201 38 -56 0 -119 -5 -138 -10z"/>
<path d="M2209 2489 c-24 -29 -44 -54 -44 -56 0 -2 34 -26 75 -53 l75 -51 28
33 c15 18 27 37 27 43 0 6 -17 31 -37 56 -21 24 -45 52 -53 61 -8 10 -17 18
-21 18 -4 0 -26 -23 -50 -51z"/>
<path d="M4044 2473 c-43 -54 -45 -59 -25 -77 17 -15 20 -14 57 15 42 33 43
40 15 75 l-18 23 -29 -36z"/>
<path d="M2076 2316 c-20 -29 -36 -58 -36 -65 0 -7 15 -18 33 -26 17 -7 53
-23 80 -34 26 -11 50 -21 54 -22 4 0 17 19 30 42 l23 44 -23 20 c-40 37 -114
95 -120 95 -3 0 -22 -24 -41 -54z"/>
<path d="M1969 2125 c-16 -35 -29 -68 -29 -73 0 -4 43 -19 95 -33 l95 -26 20
45 c25 56 25 57 -2 74 -36 23 -136 78 -143 78 -3 0 -19 -29 -36 -65z"/>
<path d="M3500 2177 c-63 -22 -84 -99 -59 -219 11 -53 50 -118 71 -118 6 0 20
8 31 18 29 26 200 24 242 -3 37 -23 70 -58 100 -106 29 -45 49 -51 101 -29
107 46 67 154 -101 273 -115 81 -203 107 -290 88 -92 -21 -89 4 3 34 42 14 72
16 140 11 l87 -6 -55 20 c-57 21 -186 50 -217 49 -10 0 -34 -5 -53 -12z"/>
<path d="M1910 1957 c-6 -23 -14 -57 -20 -76 -5 -19 -7 -37 -5 -41 3 -4 33
-10 67 -14 35 -4 79 -10 100 -13 l36 -5 12 57 c6 31 10 59 7 61 -4 4 -47 21
-149 59 l-38 14 -10 -42z"/>
<path d="M3202 1753 c-64 -23 -116 -77 -137 -144 -23 -73 -17 -89 33 -89 61 0
88 -43 35 -56 -44 -11 -85 -34 -120 -67 -26 -24 -33 -39 -33 -69 0 -43 11 -49
29 -15 18 34 99 85 156 97 35 8 74 8 139 0 100 -12 162 -42 218 -105 40 -46
52 -45 45 4 -6 49 -22 70 -114 150 -40 35 -73 68 -73 73 0 9 28 8 95 -4 66
-11 -14 161 -95 202 -22 12 -118 41 -130 39 -3 0 -24 -7 -48 -16z"/>
<path d="M3095 1317 c-27 -9 -45 -23 -58 -45 -11 -18 -18 -34 -16 -36 2 -2 51
0 109 5 96 8 306 -2 353 -17 26 -8 22 23 -5 38 -50 27 -128 48 -213 58 -109
12 -120 12 -170 -3z"/>
</g>
</svg>
